<?xml version="1.0" encoding="UTF-8" standalone="no"?>
<!DOCTYPE svg PUBLIC "-//W3C//DTD SVG 1.1//EN" "http://www.w3.org/Graphics/SVG/1.1/DTD/svg11.dtd">
<svg width="100%" height="100%" viewBox="0 0 1239 167" version="1.1" xmlns="http://www.w3.org/2000/svg" xmlns:xlink="http://www.w3.org/1999/xlink" xml:space="preserve" xmlns:serif="http://www.serif.com/" style="fill-rule:evenodd;clip-rule:evenodd;stroke-linejoin:round;stroke-miterlimit:2;">
    <g transform="matrix(5.55556,0,0,5.55556,0,0)">
        <g id="Artboard">
            <path id="Rectangle" d="M223,8C223,3.585 219.415,0 215,0L8,0C3.585,0 0,3.585 0,8L0,22C0,26.415 3.585,30 8,30L215,30C219.415,30 223,26.415 223,22L223,8Z" style="fill:rgb(126,95,217);"/>
            <g id="Group" transform="matrix(1,0,0,1,23,7.08)">
                <path id="Rectangle-2" d="M1.296,-0L19.026,-0C22.126,-0 24.64,2.514 24.64,5.614L24.64,5.944C24.64,9.045 22.126,11.559 19.026,11.559L17.418,11.559L17.418,13.249C17.418,14.68 16.258,15.84 14.827,15.84L2.591,15.84C1.16,15.84 -0,14.68 -0,13.249L-0,1.296C-0,0.58 0.58,-0 1.296,-0ZM17.418,2.997L17.418,8.562L18.884,8.562C20.42,8.562 21.666,7.316 21.666,5.779C21.666,4.243 20.42,2.997 18.884,2.997L17.418,2.997Z" style="fill:white;fill-rule:nonzero;"/>
                <path id="Path-2" d="M8.36,5.277C8.76,4.106 9.709,3.52 11.206,3.52C13.451,3.52 14.284,6.314 13.107,8.14C12.322,9.358 10.74,10.898 8.36,12.76C5.98,10.898 4.398,9.358 3.613,8.14C2.436,6.314 3.269,3.52 5.514,3.52C7.011,3.52 7.96,4.106 8.36,5.277Z" style="fill:rgb(255,94,91);fill-rule:nonzero;"/>
            </g>
            <g transform="matrix(1,0,0,1,-6.5533,0.665)">
                <g transform="matrix(1,0,0,1,-9.47416,5.83928)">
                    <g transform="matrix(15,0,0,15,175.092,14.5607)">
                        <path d="M0.834,-0.538C0.851,-0.538 0.866,-0.532 0.878,-0.52C0.891,-0.507 0.897,-0.492 0.897,-0.475L0.897,-0.436L0.76,-0.436L0.76,-0.447C0.76,-0.456 0.755,-0.461 0.746,-0.461L0.159,-0.461L0.159,-0.436L0.022,-0.436L0.022,-0.538L0.133,-0.538L0.11,-0.591L0.253,-0.591L0.277,-0.538L0.371,-0.538L0.348,-0.591L0.491,-0.591L0.515,-0.538L0.643,-0.538L0.666,-0.591L0.809,-0.591L0.786,-0.538L0.834,-0.538ZM0.278,-0.341L0.267,-0.312L0.897,-0.312L0.897,-0.196C0.87,-0.183 0.843,-0.17 0.814,-0.158C0.785,-0.145 0.755,-0.133 0.724,-0.121C0.751,-0.114 0.779,-0.108 0.808,-0.102C0.836,-0.098 0.866,-0.093 0.897,-0.09L0.897,0.002C0.84,-0.003 0.785,-0.012 0.732,-0.025C0.678,-0.037 0.625,-0.052 0.574,-0.069C0.521,-0.053 0.467,-0.039 0.412,-0.028C0.357,-0.017 0.302,-0.009 0.246,-0.006L0.246,-0.099C0.277,-0.101 0.308,-0.104 0.337,-0.109C0.366,-0.113 0.395,-0.118 0.424,-0.125C0.396,-0.136 0.369,-0.148 0.342,-0.16C0.315,-0.172 0.289,-0.184 0.264,-0.196L0.264,-0.304L0.154,0.002L0.023,0.002L0.147,-0.341L0.022,-0.341L0.022,-0.415L0.173,-0.415L0.182,-0.439L0.313,-0.439L0.304,-0.415L0.897,-0.415L0.897,-0.341L0.278,-0.341ZM0.574,-0.167C0.606,-0.178 0.637,-0.189 0.668,-0.201C0.699,-0.213 0.73,-0.225 0.762,-0.238L0.398,-0.238C0.428,-0.225 0.457,-0.213 0.486,-0.202C0.515,-0.19 0.544,-0.178 0.574,-0.167ZM0.043,-0.677L0.877,-0.722L0.877,-0.635L0.043,-0.59L0.043,-0.677Z" style="fill:white;fill-rule:nonzero;"/>
                    </g>
                    <g transform="matrix(15,0,0,15,188.892,14.5607)">
                        <path d="M0.364,-0.499L0.344,-0.448L0.855,-0.448L0.855,-0.357L0.852,-0.357L0.855,-0.356C0.816,-0.261 0.759,-0.186 0.684,-0.131C0.712,-0.12 0.742,-0.112 0.774,-0.107C0.806,-0.102 0.841,-0.098 0.878,-0.096L0.878,-0C0.817,-0 0.761,-0.005 0.711,-0.015C0.66,-0.024 0.612,-0.041 0.568,-0.064C0.528,-0.047 0.485,-0.032 0.438,-0.021C0.391,-0.01 0.342,-0.001 0.289,0.004L0.289,-0.101C0.321,-0.106 0.351,-0.111 0.38,-0.117C0.408,-0.124 0.435,-0.131 0.46,-0.14C0.409,-0.187 0.361,-0.247 0.316,-0.321L0.453,-0.321C0.488,-0.268 0.527,-0.226 0.57,-0.193C0.601,-0.212 0.628,-0.235 0.652,-0.262C0.676,-0.289 0.697,-0.32 0.716,-0.356L0.717,-0.357L0.308,-0.356L0.17,-0.003L0.035,0.003L0.232,-0.499L0.043,-0.499L0.116,-0.719L0.24,-0.719L0.2,-0.597L0.27,-0.597L0.318,-0.719L0.453,-0.724L0.403,-0.597L0.719,-0.597L0.684,-0.695L0.816,-0.695L0.885,-0.499L0.364,-0.499Z" style="fill:white;fill-rule:nonzero;"/>
                    </g>
                    <g transform="matrix(15,0,0,15,202.692,14.5607)">
                        <path d="M0.523,-0.722L0.523,-0.667L0.869,-0.667L0.869,-0.252C0.869,-0.239 0.867,-0.226 0.862,-0.215C0.857,-0.204 0.85,-0.194 0.842,-0.186C0.833,-0.177 0.823,-0.171 0.812,-0.166C0.8,-0.161 0.788,-0.158 0.775,-0.158L0.523,-0.158L0.523,-0.125C0.523,-0.116 0.526,-0.108 0.532,-0.102C0.538,-0.096 0.546,-0.093 0.555,-0.093L0.889,-0.093L0.837,0.001L0.481,0.001C0.468,0.001 0.455,-0.002 0.444,-0.007C0.433,-0.012 0.423,-0.018 0.414,-0.027C0.406,-0.036 0.4,-0.046 0.395,-0.057C0.39,-0.068 0.387,-0.08 0.387,-0.093L0.387,-0.158L0.03,-0.158L0.03,-0.667L0.387,-0.667L0.387,-0.722L0.523,-0.722ZM0.154,-0.569L0.154,-0.464L0.387,-0.464L0.387,-0.569L0.154,-0.569ZM0.387,-0.255L0.387,-0.366L0.154,-0.366L0.154,-0.255L0.387,-0.255ZM0.699,-0.255C0.708,-0.255 0.715,-0.258 0.721,-0.264C0.727,-0.27 0.73,-0.278 0.73,-0.287L0.73,-0.366L0.523,-0.366L0.523,-0.255L0.699,-0.255ZM0.523,-0.569L0.523,-0.464L0.73,-0.464L0.73,-0.569L0.523,-0.569Z" style="fill:white;fill-rule:nonzero;"/>
                    </g>
                </g>
                <g transform="matrix(1,0,0,1,2.77945,-5.17415)">
                    <g transform="matrix(14,0,0,14,59.3289,23.8631)">
                        <path d="M0.323,0.011C0.295,0.011 0.267,0.009 0.237,0.004C0.209,0 0.181,-0.006 0.155,-0.014C0.128,-0.022 0.105,-0.032 0.084,-0.044C0.069,-0.052 0.059,-0.063 0.053,-0.076C0.047,-0.089 0.045,-0.102 0.047,-0.115C0.048,-0.128 0.053,-0.14 0.062,-0.151C0.07,-0.161 0.081,-0.168 0.094,-0.171C0.107,-0.173 0.121,-0.171 0.137,-0.163C0.164,-0.148 0.194,-0.136 0.227,-0.129C0.259,-0.122 0.291,-0.118 0.323,-0.118C0.372,-0.118 0.406,-0.126 0.427,-0.141C0.448,-0.156 0.458,-0.174 0.458,-0.197C0.458,-0.216 0.451,-0.232 0.436,-0.243C0.421,-0.254 0.396,-0.264 0.359,-0.272L0.246,-0.296C0.182,-0.309 0.135,-0.332 0.103,-0.365C0.073,-0.397 0.057,-0.439 0.057,-0.492C0.057,-0.525 0.064,-0.556 0.078,-0.583C0.092,-0.61 0.112,-0.634 0.137,-0.654C0.162,-0.674 0.193,-0.689 0.228,-0.7C0.263,-0.711 0.301,-0.716 0.343,-0.716C0.38,-0.716 0.417,-0.712 0.453,-0.703C0.489,-0.694 0.521,-0.68 0.548,-0.663C0.561,-0.655 0.571,-0.645 0.576,-0.632C0.581,-0.62 0.582,-0.608 0.581,-0.596C0.579,-0.583 0.574,-0.572 0.566,-0.563C0.557,-0.554 0.547,-0.548 0.534,-0.545C0.521,-0.542 0.506,-0.545 0.488,-0.554C0.466,-0.565 0.443,-0.574 0.418,-0.579C0.393,-0.584 0.368,-0.587 0.342,-0.587C0.314,-0.587 0.29,-0.583 0.271,-0.576C0.251,-0.569 0.236,-0.558 0.226,-0.545C0.215,-0.532 0.21,-0.516 0.21,-0.499C0.21,-0.48 0.217,-0.464 0.231,-0.452C0.245,-0.44 0.269,-0.43 0.304,-0.423L0.417,-0.399C0.482,-0.385 0.531,-0.363 0.563,-0.332C0.595,-0.301 0.611,-0.26 0.611,-0.209C0.611,-0.176 0.604,-0.146 0.591,-0.118C0.578,-0.092 0.558,-0.068 0.533,-0.049C0.508,-0.03 0.477,-0.015 0.442,-0.005C0.407,0.006 0.367,0.011 0.323,0.011Z" style="fill:white;fill-rule:nonzero;"/>
                    </g>
                    <g transform="matrix(14,0,0,14,68.3029,23.8631)">
                        <path d="M0.239,0.011C0.198,0.011 0.163,0.003 0.136,-0.012C0.109,-0.027 0.089,-0.051 0.076,-0.082C0.063,-0.113 0.056,-0.151 0.056,-0.197L0.056,-0.423C0.056,-0.448 0.063,-0.467 0.076,-0.48C0.089,-0.493 0.107,-0.499 0.131,-0.499C0.155,-0.499 0.174,-0.493 0.187,-0.48C0.2,-0.467 0.207,-0.448 0.207,-0.423L0.207,-0.193C0.207,-0.164 0.213,-0.142 0.225,-0.128C0.237,-0.113 0.256,-0.106 0.282,-0.106C0.311,-0.106 0.334,-0.116 0.353,-0.137C0.371,-0.157 0.38,-0.184 0.38,-0.217L0.38,-0.423C0.38,-0.448 0.387,-0.467 0.4,-0.48C0.412,-0.493 0.431,-0.499 0.455,-0.499C0.48,-0.499 0.499,-0.493 0.511,-0.48C0.525,-0.467 0.531,-0.448 0.531,-0.423L0.531,-0.068C0.531,-0.017 0.507,0.009 0.458,0.009C0.434,0.009 0.416,0.002 0.403,-0.011C0.39,-0.024 0.384,-0.043 0.384,-0.068L0.384,-0.135L0.399,-0.096C0.384,-0.062 0.363,-0.036 0.336,-0.017C0.309,0.002 0.276,0.011 0.239,0.011Z" style="fill:white;fill-rule:nonzero;"/>
                    </g>
                    <g transform="matrix(14,0,0,14,76.5629,23.8631)">
                        <path d="M0.134,0.189C0.109,0.189 0.091,0.182 0.078,0.169C0.065,0.156 0.058,0.137 0.058,0.112L0.058,-0.423C0.058,-0.448 0.065,-0.467 0.078,-0.48C0.091,-0.493 0.109,-0.499 0.132,-0.499C0.157,-0.499 0.175,-0.493 0.188,-0.48C0.201,-0.467 0.207,-0.448 0.207,-0.423L0.207,-0.355L0.196,-0.394C0.206,-0.426 0.226,-0.452 0.257,-0.471C0.287,-0.491 0.322,-0.501 0.361,-0.501C0.404,-0.501 0.441,-0.491 0.473,-0.47C0.506,-0.449 0.531,-0.42 0.549,-0.382C0.567,-0.344 0.576,-0.299 0.576,-0.246C0.576,-0.193 0.567,-0.148 0.549,-0.109C0.531,-0.07 0.506,-0.041 0.474,-0.02C0.442,0.001 0.404,0.011 0.361,0.011C0.322,0.011 0.288,0.001 0.258,-0.018C0.228,-0.037 0.208,-0.061 0.197,-0.092L0.209,-0.092L0.209,0.112C0.209,0.137 0.203,0.156 0.19,0.169C0.177,0.182 0.158,0.189 0.134,0.189ZM0.316,-0.102C0.337,-0.102 0.356,-0.107 0.373,-0.118C0.389,-0.129 0.402,-0.145 0.41,-0.166C0.42,-0.187 0.424,-0.213 0.424,-0.246C0.424,-0.295 0.414,-0.331 0.394,-0.354C0.374,-0.377 0.348,-0.388 0.316,-0.388C0.295,-0.388 0.276,-0.383 0.26,-0.373C0.243,-0.363 0.23,-0.347 0.221,-0.327C0.212,-0.306 0.207,-0.279 0.207,-0.246C0.207,-0.197 0.217,-0.161 0.237,-0.138C0.257,-0.114 0.283,-0.102 0.316,-0.102Z" style="fill:white;fill-rule:nonzero;"/>
                    </g>
                    <g transform="matrix(14,0,0,14,85.1029,23.8631)">
                        <path d="M0.134,0.189C0.109,0.189 0.091,0.182 0.078,0.169C0.065,0.156 0.058,0.137 0.058,0.112L0.058,-0.423C0.058,-0.448 0.065,-0.467 0.078,-0.48C0.091,-0.493 0.109,-0.499 0.132,-0.499C0.157,-0.499 0.175,-0.493 0.188,-0.48C0.201,-0.467 0.207,-0.448 0.207,-0.423L0.207,-0.355L0.196,-0.394C0.206,-0.426 0.226,-0.452 0.257,-0.471C0.287,-0.491 0.322,-0.501 0.361,-0.501C0.404,-0.501 0.441,-0.491 0.473,-0.47C0.506,-0.449 0.531,-0.42 0.549,-0.382C0.567,-0.344 0.576,-0.299 0.576,-0.246C0.576,-0.193 0.567,-0.148 0.549,-0.109C0.531,-0.07 0.506,-0.041 0.474,-0.02C0.442,0.001 0.404,0.011 0.361,0.011C0.322,0.011 0.288,0.001 0.258,-0.018C0.228,-0.037 0.208,-0.061 0.197,-0.092L0.209,-0.092L0.209,0.112C0.209,0.137 0.203,0.156 0.19,0.169C0.177,0.182 0.158,0.189 0.134,0.189ZM0.316,-0.102C0.337,-0.102 0.356,-0.107 0.373,-0.118C0.389,-0.129 0.402,-0.145 0.41,-0.166C0.42,-0.187 0.424,-0.213 0.424,-0.246C0.424,-0.295 0.414,-0.331 0.394,-0.354C0.374,-0.377 0.348,-0.388 0.316,-0.388C0.295,-0.388 0.276,-0.383 0.26,-0.373C0.243,-0.363 0.23,-0.347 0.221,-0.327C0.212,-0.306 0.207,-0.279 0.207,-0.246C0.207,-0.197 0.217,-0.161 0.237,-0.138C0.257,-0.114 0.283,-0.102 0.316,-0.102Z" style="fill:white;fill-rule:nonzero;"/>
                    </g>
                    <g transform="matrix(14,0,0,14,93.6429,23.8631)">
                        <path d="M0.294,0.011C0.241,0.011 0.196,0.001 0.157,-0.02C0.117,-0.041 0.087,-0.07 0.066,-0.109C0.045,-0.148 0.034,-0.193 0.034,-0.246C0.034,-0.285 0.04,-0.321 0.052,-0.352C0.064,-0.383 0.082,-0.41 0.105,-0.433C0.128,-0.455 0.155,-0.472 0.187,-0.484C0.219,-0.495 0.255,-0.501 0.294,-0.501C0.347,-0.501 0.393,-0.491 0.432,-0.47C0.47,-0.449 0.501,-0.42 0.523,-0.382C0.544,-0.344 0.555,-0.299 0.555,-0.246C0.555,-0.206 0.549,-0.17 0.537,-0.139C0.524,-0.108 0.507,-0.081 0.484,-0.058C0.461,-0.035 0.434,-0.018 0.402,-0.007C0.369,0.005 0.333,0.011 0.294,0.011ZM0.294,-0.102C0.316,-0.102 0.335,-0.107 0.351,-0.118C0.367,-0.129 0.38,-0.145 0.389,-0.166C0.398,-0.187 0.403,-0.213 0.403,-0.246C0.403,-0.295 0.393,-0.331 0.373,-0.354C0.353,-0.377 0.327,-0.388 0.294,-0.388C0.273,-0.388 0.254,-0.383 0.237,-0.373C0.221,-0.363 0.209,-0.347 0.2,-0.327C0.191,-0.306 0.186,-0.279 0.186,-0.246C0.186,-0.197 0.196,-0.161 0.216,-0.138C0.236,-0.114 0.262,-0.102 0.294,-0.102Z" style="fill:white;fill-rule:nonzero;"/>
                    </g>
                    <g transform="matrix(14,0,0,14,101.889,23.8631)">
                        <path d="M0.136,0.009C0.111,0.009 0.091,0.002 0.078,-0.011C0.065,-0.024 0.058,-0.043 0.058,-0.068L0.058,-0.423C0.058,-0.448 0.065,-0.467 0.078,-0.48C0.091,-0.493 0.109,-0.499 0.132,-0.499C0.156,-0.499 0.174,-0.493 0.187,-0.48C0.2,-0.467 0.206,-0.448 0.206,-0.423L0.206,-0.371L0.196,-0.371C0.204,-0.411 0.222,-0.442 0.249,-0.464C0.276,-0.486 0.312,-0.498 0.355,-0.501C0.372,-0.502 0.385,-0.498 0.394,-0.489C0.403,-0.479 0.407,-0.463 0.408,-0.441C0.409,-0.42 0.405,-0.404 0.396,-0.392C0.386,-0.38 0.37,-0.373 0.347,-0.37L0.324,-0.368C0.286,-0.365 0.258,-0.354 0.239,-0.335C0.221,-0.316 0.212,-0.289 0.212,-0.254L0.212,-0.068C0.212,-0.043 0.205,-0.024 0.193,-0.011C0.18,0.002 0.161,0.009 0.136,0.009Z" style="fill:white;fill-rule:nonzero;"/>
                    </g>
                    <g transform="matrix(14,0,0,14,108.063,23.8631)">
                        <path d="M0.299,0.011C0.253,0.011 0.215,0.003 0.184,-0.012C0.153,-0.027 0.13,-0.05 0.115,-0.079C0.1,-0.108 0.092,-0.145 0.092,-0.19L0.092,-0.378L0.05,-0.378C0.031,-0.378 0.017,-0.383 0.007,-0.393C-0.004,-0.403 -0.009,-0.417 -0.009,-0.434C-0.009,-0.453 -0.004,-0.467 0.007,-0.476C0.017,-0.486 0.031,-0.491 0.05,-0.491L0.092,-0.491L0.092,-0.567C0.092,-0.592 0.099,-0.612 0.112,-0.625C0.125,-0.637 0.144,-0.644 0.168,-0.644C0.193,-0.644 0.211,-0.637 0.224,-0.625C0.237,-0.612 0.243,-0.592 0.243,-0.567L0.243,-0.491L0.338,-0.491C0.357,-0.491 0.371,-0.486 0.381,-0.476C0.391,-0.467 0.396,-0.453 0.396,-0.434C0.396,-0.417 0.391,-0.403 0.381,-0.393C0.371,-0.383 0.357,-0.378 0.338,-0.378L0.243,-0.378L0.243,-0.196C0.243,-0.168 0.25,-0.147 0.263,-0.133C0.276,-0.119 0.296,-0.112 0.325,-0.112C0.335,-0.112 0.344,-0.113 0.353,-0.115C0.362,-0.117 0.37,-0.118 0.377,-0.119C0.386,-0.12 0.394,-0.117 0.4,-0.111C0.406,-0.104 0.409,-0.09 0.409,-0.069C0.409,-0.053 0.406,-0.039 0.401,-0.027C0.396,-0.015 0.386,-0.006 0.373,-0.001C0.364,0.002 0.353,0.005 0.338,0.007C0.323,0.01 0.31,0.011 0.299,0.011Z" style="fill:white;fill-rule:nonzero;"/>
                    </g>
                    <g transform="matrix(14,0,0,14,117.625,23.8631)">
                        <path d="M0.136,0.009C0.111,0.009 0.093,0.002 0.08,-0.011C0.067,-0.024 0.06,-0.043 0.06,-0.068L0.06,-0.423C0.06,-0.448 0.067,-0.467 0.08,-0.48C0.093,-0.493 0.111,-0.499 0.134,-0.499C0.158,-0.499 0.176,-0.493 0.189,-0.48C0.202,-0.467 0.208,-0.448 0.208,-0.423L0.208,-0.359L0.197,-0.399C0.21,-0.43 0.231,-0.454 0.259,-0.473C0.287,-0.492 0.32,-0.501 0.358,-0.501C0.396,-0.501 0.428,-0.492 0.453,-0.474C0.478,-0.456 0.496,-0.428 0.507,-0.391L0.493,-0.391C0.508,-0.425 0.53,-0.452 0.561,-0.471C0.591,-0.491 0.626,-0.501 0.665,-0.501C0.703,-0.501 0.734,-0.494 0.758,-0.478C0.783,-0.464 0.801,-0.441 0.813,-0.41C0.825,-0.38 0.831,-0.342 0.831,-0.295L0.831,-0.068C0.831,-0.043 0.825,-0.024 0.812,-0.011C0.799,0.002 0.78,0.009 0.756,0.009C0.731,0.009 0.713,0.002 0.7,-0.011C0.687,-0.024 0.68,-0.043 0.68,-0.068L0.68,-0.29C0.68,-0.323 0.675,-0.346 0.665,-0.362C0.654,-0.377 0.637,-0.384 0.612,-0.384C0.583,-0.384 0.561,-0.374 0.545,-0.354C0.529,-0.334 0.521,-0.306 0.521,-0.269L0.521,-0.068C0.521,-0.043 0.515,-0.024 0.501,-0.011C0.489,0.002 0.47,0.009 0.446,0.009C0.422,0.009 0.403,0.002 0.39,-0.011C0.377,-0.024 0.37,-0.043 0.37,-0.068L0.37,-0.29C0.37,-0.323 0.365,-0.346 0.355,-0.362C0.344,-0.377 0.327,-0.384 0.302,-0.384C0.273,-0.384 0.251,-0.374 0.235,-0.354C0.219,-0.334 0.211,-0.306 0.211,-0.269L0.211,-0.068C0.211,-0.017 0.186,0.009 0.136,0.009Z" style="fill:white;fill-rule:nonzero;"/>
                    </g>
                    <g transform="matrix(14,0,0,14,130.071,23.8631)">
                        <path d="M0.313,0.011C0.255,0.011 0.205,0 0.164,-0.021C0.122,-0.042 0.09,-0.071 0.068,-0.11C0.045,-0.148 0.034,-0.193 0.034,-0.245C0.034,-0.296 0.045,-0.34 0.066,-0.379C0.087,-0.417 0.117,-0.447 0.156,-0.469C0.194,-0.49 0.237,-0.501 0.286,-0.501C0.321,-0.501 0.353,-0.495 0.382,-0.484C0.411,-0.472 0.435,-0.455 0.456,-0.434C0.477,-0.412 0.492,-0.386 0.503,-0.355C0.514,-0.324 0.519,-0.289 0.519,-0.251C0.519,-0.238 0.515,-0.229 0.507,-0.223C0.499,-0.216 0.487,-0.213 0.472,-0.213L0.158,-0.213L0.158,-0.291L0.41,-0.291L0.394,-0.277C0.394,-0.304 0.39,-0.327 0.382,-0.345C0.374,-0.364 0.363,-0.378 0.347,-0.387C0.333,-0.396 0.314,-0.401 0.292,-0.401C0.267,-0.401 0.246,-0.395 0.229,-0.384C0.212,-0.373 0.198,-0.356 0.189,-0.335C0.18,-0.314 0.175,-0.288 0.175,-0.258L0.175,-0.25C0.175,-0.199 0.187,-0.162 0.211,-0.138C0.234,-0.114 0.269,-0.102 0.316,-0.102C0.332,-0.102 0.35,-0.104 0.371,-0.108C0.392,-0.112 0.411,-0.118 0.429,-0.127C0.444,-0.134 0.458,-0.137 0.47,-0.135C0.482,-0.132 0.491,-0.127 0.498,-0.118C0.505,-0.109 0.508,-0.099 0.509,-0.088C0.51,-0.077 0.508,-0.066 0.502,-0.055C0.496,-0.043 0.486,-0.034 0.472,-0.027C0.449,-0.014 0.424,-0.005 0.396,0.001C0.367,0.008 0.34,0.011 0.313,0.011Z" style="fill:white;fill-rule:nonzero;"/>
                    </g>
                    <g transform="matrix(14,0,0,14,141.663,23.8631)">
                        <path d="M0.294,0.011C0.241,0.011 0.196,0.001 0.157,-0.02C0.117,-0.041 0.087,-0.07 0.066,-0.109C0.045,-0.148 0.034,-0.193 0.034,-0.246C0.034,-0.285 0.04,-0.321 0.052,-0.352C0.064,-0.383 0.082,-0.41 0.105,-0.433C0.128,-0.455 0.155,-0.472 0.187,-0.484C0.219,-0.495 0.255,-0.501 0.294,-0.501C0.347,-0.501 0.393,-0.491 0.432,-0.47C0.47,-0.449 0.501,-0.42 0.523,-0.382C0.544,-0.344 0.555,-0.299 0.555,-0.246C0.555,-0.206 0.549,-0.17 0.537,-0.139C0.524,-0.108 0.507,-0.081 0.484,-0.058C0.461,-0.035 0.434,-0.018 0.402,-0.007C0.369,0.005 0.333,0.011 0.294,0.011ZM0.294,-0.102C0.316,-0.102 0.335,-0.107 0.351,-0.118C0.367,-0.129 0.38,-0.145 0.389,-0.166C0.398,-0.187 0.403,-0.213 0.403,-0.246C0.403,-0.295 0.393,-0.331 0.373,-0.354C0.353,-0.377 0.327,-0.388 0.294,-0.388C0.273,-0.388 0.254,-0.383 0.237,-0.373C0.221,-0.363 0.209,-0.347 0.2,-0.327C0.191,-0.306 0.186,-0.279 0.186,-0.246C0.186,-0.197 0.196,-0.161 0.216,-0.138C0.236,-0.114 0.262,-0.102 0.294,-0.102Z" style="fill:white;fill-rule:nonzero;"/>
                    </g>
                    <g transform="matrix(14,0,0,14,149.909,23.8631)">
                        <path d="M0.134,0.009C0.109,0.009 0.091,0.002 0.078,-0.011C0.065,-0.024 0.058,-0.043 0.058,-0.068L0.058,-0.423C0.058,-0.448 0.065,-0.467 0.078,-0.48C0.091,-0.493 0.109,-0.499 0.132,-0.499C0.156,-0.499 0.174,-0.493 0.187,-0.48C0.2,-0.467 0.206,-0.448 0.206,-0.423L0.206,-0.366L0.195,-0.399C0.21,-0.432 0.233,-0.457 0.264,-0.474C0.294,-0.492 0.328,-0.501 0.367,-0.501C0.406,-0.501 0.439,-0.494 0.464,-0.478C0.489,-0.464 0.508,-0.441 0.521,-0.41C0.534,-0.38 0.54,-0.342 0.54,-0.295L0.54,-0.068C0.54,-0.043 0.534,-0.024 0.521,-0.011C0.507,0.002 0.489,0.009 0.464,0.009C0.44,0.009 0.422,0.002 0.408,-0.011C0.396,-0.024 0.389,-0.043 0.389,-0.068L0.389,-0.288C0.389,-0.322 0.383,-0.346 0.371,-0.362C0.358,-0.377 0.339,-0.384 0.314,-0.384C0.282,-0.384 0.257,-0.374 0.237,-0.354C0.219,-0.334 0.209,-0.307 0.209,-0.274L0.209,-0.068C0.209,-0.017 0.184,0.009 0.134,0.009Z" style="fill:white;fill-rule:nonzero;"/>
                    </g>
                </g>
            </g>
        </g>
    </g>
</svg>
