<?xml version="1.0" encoding="UTF-8" standalone="no"?>
<!DOCTYPE svg PUBLIC "-//W3C//DTD SVG 1.1//EN" "http://www.w3.org/Graphics/SVG/1.1/DTD/svg11.dtd">
<svg width="223" height="100%" viewBox="0 0 223 30" version="1.1" xmlns="http://www.w3.org/2000/svg" xmlns:xlink="http://www.w3.org/1999/xlink" xml:space="preserve" xmlns:serif="http://www.serif.com/" style="fill-rule:evenodd;clip-rule:evenodd;stroke-linejoin:round;stroke-miterlimit:2;">
    <g id="Artboard">
        <path id="Rectangle" d="M223,8C223,3.585 219.415,0 215,0L8,0C3.585,0 0,3.585 0,8L0,22C0,26.415 3.585,30 8,30L215,30C219.415,30 223,26.415 223,22L223,8Z" style="fill:rgb(126,95,217);" />
        <g id="Group" transform="matrix(1,0,0,1,23,7.08)">
            <path id="Rectangle-2" d="M1.296,-0L19.026,-0C22.126,-0 24.64,2.514 24.64,5.614L24.64,5.944C24.64,9.045 22.126,11.559 19.026,11.559L17.418,11.559L17.418,13.249C17.418,14.68 16.258,15.84 14.827,15.84L2.591,15.84C1.16,15.84 -0,14.68 -0,13.249L-0,1.296C-0,0.58 0.58,-0 1.296,-0ZM17.418,2.997L17.418,8.562L18.884,8.562C20.42,8.562 21.666,7.316 21.666,5.779C21.666,4.243 20.42,2.997 18.884,2.997L17.418,2.997Z" style="fill:white;fill-rule:nonzero;" />
            <path id="Path-2" d="M8.36,5.277C8.76,4.106 9.709,3.52 11.206,3.52C13.451,3.52 14.284,6.314 13.107,8.14C12.322,9.358 10.74,10.898 8.36,12.76C5.98,10.898 4.398,9.358 3.613,8.14C2.436,6.314 3.269,3.52 5.514,3.52C7.011,3.52 7.96,4.106 8.36,5.277Z" style="fill:rgb(255,94,91);fill-rule:nonzero;" />
        </g>
        <g transform="matrix(1,0,0,1,-6.5533,0.665)">
            <g transform="matrix(1,0,0,1,-9.47416,5.83928)">
                <text x="175.092px" y="14.561px" style="font-family:'PangMenZhengDao';font-size:15px;fill:white;">爱发电</text>
            </g>
            <g transform="matrix(1,0,0,1,2.77945,-5.17415)">
                <text x="59.329px" y="23.863px" style="font-family:'Nunito-ExtraBold', 'Nunito';font-weight:800;font-size:14px;fill:white;">
                    Suppor
                    <tspan x="108.063px " y="23.863px ">t</tspan>
                    me on
                </text>
            </g>
        </g>
    </g>
</svg>